<svg width="20" height="20" viewBox="0 0 20 20" fill="none" xmlns="http://www.w3.org/2000/svg">
<path d="M10 0.247009C7.62543 0.246956 5.32833 1.09189 3.51977 2.63061C1.7112 4.16934 0.509207 6.30142 0.128879 8.64534C-0.251449 10.9893 0.214712 13.392 1.44394 15.4237C2.67317 17.4553 4.58525 18.9832 6.838 19.734C7.338 19.822 7.525 19.522 7.525 19.259C7.525 19.022 7.513 18.234 7.513 17.397C5 17.859 4.35 16.784 4.15 16.222C3.92814 15.6748 3.57634 15.1898 3.125 14.809C2.775 14.622 2.275 14.159 3.112 14.147C3.43188 14.1816 3.7387 14.2929 4.00644 14.4713C4.27417 14.6497 4.49493 14.8901 4.65 15.172C4.78673 15.4177 4.9706 15.634 5.19107 15.8085C5.41153 15.9829 5.66427 16.1122 5.93478 16.1889C6.2053 16.2655 6.48828 16.288 6.76751 16.2551C7.04674 16.2222 7.31673 16.1345 7.562 15.997C7.60532 15.4884 7.83206 15.0128 8.2 14.659C5.975 14.409 3.65 13.547 3.65 9.72201C3.63583 8.72799 4.00258 7.76622 4.675 7.03401C4.36931 6.17023 4.40508 5.2223 4.775 4.38401C4.775 4.38401 5.612 4.12201 7.525 5.40901C9.16129 4.95896 10.8887 4.95896 12.525 5.40901C14.437 4.10901 15.275 4.38401 15.275 4.38401C15.645 5.22228 15.6808 6.17024 15.375 7.03401C16.0495 7.76496 16.4165 8.72757 16.4 9.72201C16.4 13.559 14.062 14.409 11.837 14.659C12.0757 14.9009 12.2595 15.1913 12.3759 15.5105C12.4924 15.8297 12.5388 16.1703 12.512 16.509C12.512 17.847 12.5 18.922 12.5 19.259C12.5 19.522 12.687 19.834 13.187 19.734C15.4356 18.9769 17.342 17.4454 18.5658 15.4128C19.7897 13.3801 20.2513 10.9787 19.8684 8.63719C19.4854 6.29567 18.2828 4.16644 16.4752 2.62959C14.6676 1.09274 12.3726 0.248299 10 0.247009Z" fill="#B2B2B2"/>
</svg>
